<svg xmlns="http://www.w3.org/2000/svg" fill="currentColor" viewBox="0 0 90 90"><path stroke="#000" d="M70.834 13.127c-.957-.71-1.807-1.235-2.549-1.575-1.82-1.019-3.486-1.604-5-1.759-1.172-.184-2.574.032-4.211.649-1.574.679-2.67 1.126-3.289 1.342-.863.371-1.557.587-2.08.649-.063.031-.219.045-.465.045-.125 0-.309-.015-.555-.045-.863-.093-2.33-.355-4.398-.787-1.172-.247-2.1-.463-2.779-.648l-3.332-.787c-.803-.155-1.391-.247-1.758-.278-.188 0-.295.016-.326.046l-.184.046h-.094c-.031 0-.047.031-.047.092l-.094.046-.139.231c-.182.34-.309.911-.369 1.714-.063.74-.078 1.45-.045 2.129.061 1.605.445 2.994 1.156 4.167.709 1.173 1.867 2.207 3.471 3.102 1.268.68 2.947 1.358 5.049 2.038l2.826 1.018c1.203.463 2.189.941 2.961 1.436 1.111.709 1.988 1.528 2.637 2.454.436.617.744 1.188.93 1.713.184.649.291 1.296.324 1.945.027 1.203-.217 2.453-.746 3.749-.461 1.112-1.031 2.161-1.709 3.149-1.113 1.697-2.625 3.503-4.537 5.417-1.545 1.513-3.287 3.133-5.232 4.861-.34.309-2.131 1.806-5.373 4.491-1.17.987-2.02 1.729-2.545 2.222l-2.268 2.408c-1.699 1.915-2.963 3.58-3.795 5-.525.834-.957 1.713-1.299 2.639-.338 1.019-.541 1.914-.602 2.685l-.042.369.043.88c.061.493.139.924.232 1.295.184.526.508 1.42.971 2.687.557 1.511.867 2.437.926 2.778.373 1.203.588 2.191.648 2.962.186 1.266-.014 2.362-.602 3.288-.275.462-.631.895-1.064 1.296-.461.339-.957.603-1.48.788-.277.092-.586.169-.928.231.369.216.756.401 1.16.555.955.433 2.02.833 3.195 1.204.707.217 1.199.355 1.48.416.277.093.709.217 1.295.371 1.018.216 1.65.371 1.896.464.096.031.188.045.279.045 0-.154.016-.339.045-.555.094-.741.357-1.621.787-2.639.586-1.328 1.346-2.499 2.27-3.519.711-.679 1.422-1.204 2.129-1.575.986-.524 2.008-.74 3.057-.647 1.08.092 2.07.478 2.965 1.157.707.524 1.326 1.188 1.852 1.991.678 1.08 1.186 2.376 1.527 3.89.029.123.354 1.727.971 4.813.064.339.123.648.188.926H41.805c-5.342-.03-10.277-.092-14.816-.185-2.838-.062-5.539-.139-8.102-.232-8.58-.277-12.869-.617-12.869-1.019 0-.432 4.289-.788 12.869-1.065 2.563-.061 5.264-.139 8.102-.231 1.607 0 3.256-.015 4.957-.046-.926-.247-1.9-.586-2.918-1.019-2.193-.988-4.107-2.33-5.742-4.027-.275-.309-.508-.587-.693-.833-.803-.556-1.436-1.22-1.898-1.992-.248-.339-.432-.71-.555-1.11-.125-.463-.217-.834-.279-1.111-.184-.772-.201-1.497-.045-2.176.092-.771.383-1.42.879-1.946.434-.492.986-.863 1.668-1.11.461-.186 1.002-.31 1.619-.37.557 0 1.066.061 1.527.184 1.049.217 1.789.695 2.223 1.437.061.061.141.23.23.509 0 .123.016.293.047.509 0 .215-.016.371-.047.463l-.09.417-.141.325-.186.231c-.063.123-.154.246-.277.37-.154.154-.264.231-.322.231-.031-.03 0-.154.092-.369l.23-.649.047-.277c.092-.556 0-.988-.277-1.296-.34-.432-.926-.709-1.76-.833-.867-.154-1.668-.031-2.406.371-.432.185-.791.448-1.064.787-.281.371-.434.787-.465 1.25-.092.525-.045 1.065.139 1.621.029.093.125.354.279.787.123.309.262.571.414.787.648.957 1.686 1.713 3.104 2.268 1.512.586 2.84.648 3.98.186.309-.124.57-.262.787-.417.281-.307.463-.555.557-.74.277-.525.369-1.173.277-1.945-.094-.679-.293-1.497-.604-2.454-.123-.309-.463-1.188-1.018-2.639-.492-1.266-.848-2.207-1.064-2.824-.186-.679-.307-1.235-.369-1.667l-.094-.927.047-.925c.094-1.049.34-2.161.74-3.333.34-1.019.816-2.068 1.434-3.148.959-1.636 2.318-3.457 4.076-5.462l2.406-2.593c.555-.494 1.438-1.25 2.639-2.269 2.963-2.5 4.756-4.012 5.375-4.537 2.096-1.852 3.777-3.41 5.041-4.676 1.916-1.945 3.338-3.596 4.262-4.954 1.389-2.068 2.068-3.843 2.035-5.324 0-.834-.246-1.59-.74-2.269-.182-.278-.447-.586-.785-.926-.465-.4-.834-.678-1.113-.833-.74-.494-1.555-.926-2.453-1.297l-2.73-.972c-2.287-.833-4.076-1.621-5.369-2.361-1.885-1.142-3.271-2.484-4.17-4.028-.801-1.481-1.232-3.21-1.295-5.185 0-.896.063-1.698.188-2.408.121-1.081.338-1.882.645-2.407l.51-.648.324-.232c.186-.092.293-.154.326-.185l.414-.093c.094-.062.215-.092.373-.092h.6c.463.062 1.143.2 2.037.417L45.879 9.7c.031.032.941.325 2.732.88 2.189.679 3.688 1.173 4.49 1.481.063-.061.139-.123.229-.185.838-.431 1.482-.787 1.945-1.064 1.607-.957 2.658-1.559 3.15-1.806.77-.371 1.514-.665 2.223-.88.926-.247 1.852-.355 2.777-.324 1.822.093 3.795.633 5.926 1.621 2.314 1.142 4.23 2.5 5.74 4.073 1.604 1.667 2.871 3.951 3.799 6.852.709 2.285 1.172 4.97 1.387 8.057l.049 1.111c-.033.71-.049 1.079-.049 1.11-.092.679-.244 1.404-.461 2.176-.434 1.419-1.066 2.7-1.898 3.842-.928 1.329-1.99 2.3-3.193 2.917-.744.339-1.469.555-2.178.648-.742.124-1.482.093-2.223-.093-1.174-.277-2.33-.925-3.473-1.944-.986-.926-1.713-1.914-2.176-2.962-.463-1.142-.586-2.331-.369-3.565.09-.894.432-1.852 1.016-2.871.34-.679.789-1.435 1.344-2.269.588-.833 1.004-1.435 1.25-1.805.803-1.296 1.281-2.315 1.436-3.056.125-.679.076-1.327-.139-1.944-.094-.309-.154-.51-.186-.602-.029-.093-.029-.155 0-.186.059-.062.139-.046.232.046l.463.462c.523.619.756 1.405.695 2.362 0 1.019-.389 2.237-1.158 3.657-.156.31-.525.973-1.111 1.992-.463.896-.818 1.604-1.066 2.129-.4.926-.631 1.713-.693 2.361-.063.864.076 1.636.416 2.316.371.771.941 1.465 1.713 2.083.805.74 1.592 1.188 2.361 1.342.865.154 1.73 0 2.596-.463.74-.433 1.479-1.127 2.221-2.083.615-.926 1.094-1.96 1.434-3.102.186-.587.293-1.158.326-1.714l.043-1.759c-.184-2.839-.6-5.309-1.25-7.407-.77-2.5-1.789-4.46-3.055-5.88-.68-.738-1.465-1.448-2.36-2.127zm4.119 34.723c-.648-2.284-1.111-4.104-1.387-5.463-.279-1.42-.311-2.146-.092-2.176.307-.093 1.418 2.237 3.33 6.991.156.401.387 1.003.693 1.806.279.74.496 1.404.65 1.99l.648 2.083c.277 1.019.434 1.868.463 2.546.061.958 0 1.884-.186 2.778-.184.833-.51 1.728-.971 2.685-.311.524-.756 1.313-1.346 2.362l-1.295 2.314c-1.02 1.636-1.713 3.133-2.082 4.492-.34 1.266-.48 2.747-.416 4.444.061.525.121 1.296.184 2.315.092.864.201 1.498.326 1.898.025.186.121.432.275.741.092.155.246.385.465.695l1.063 1.389c.277.247.678.572 1.205.972.68.525 1.096.834 1.248.926.434.401.76.802.973 1.204.031.03.139.232.322.603l.141.601v.325c.064 1.388.08 2.483.047 3.286.646.032 1.266.046 1.852.046 8.611.277 12.918.633 12.918 1.065 0 .401-4.307.741-12.918 1.019-1.082.032-2.314-.015-3.701-.139l-.234-5.093c0-.741-.248-1.265-.74-1.575-.461-.338-.896-.632-1.297-.879-.367-.277-.756-.603-1.158-.972L72.5 81.692c-.154-.185-.387-.494-.695-.925-.248-.464-.418-.833-.508-1.111-.217-.586-.4-1.389-.559-2.408l-.32-2.314c-.217-2.006-.109-3.797.32-5.371.373-1.667 1.145-3.395 2.318-5.185l1.342-2.362c.709-1.173 1.127-1.898 1.248-2.176.742-1.451 1.098-2.808 1.066-4.074 0-.524-.109-1.204-.324-2.037l-.461-2.083c-.123-.555-.293-1.219-.51-1.991-.28-1.018-.433-1.62-.464-1.805zM65 76.646c-.246-.216-.525-.354-.832-.416-.342-.062-.68-.016-1.02.139-.494.185-.898.401-1.205.648l-.555.324-.418.416c-.432.525-.801 1.313-1.109 2.362-.217.771-.418 1.651-.604 2.638-.121.586-.262 2.13-.414 4.63-.094.771-.158 1.404-.186 1.898 3.578.031 6.99.077 10.232.139-.096-.524-.217-1.142-.373-1.852-.277-1.604-.492-2.916-.645-3.935-.436-2.067-.914-3.688-1.436-4.861-.156-.278-.375-.679-.65-1.203-.277-.37-.537-.68-.785-.927zm1.852-2.037c.803.772 1.451 1.836 1.943 3.195.588 1.604.928 3.318 1.02 5.139.092 1.79.186 3.209.279 4.259.061 1.08.137 2.7.23 4.861-4.262.061-8.857.092-13.797.092.031-2.808.078-4.413.139-4.814.063-.432.109-1.481.141-3.148.059-1.636.26-3.21.602-4.723.307-1.388.785-2.531 1.436-3.425l.74-.787c.213-.186.508-.387.877-.602.527-.371 1.145-.694 1.855-.973.801-.246 1.588-.308 2.359-.185.771.154 1.496.525 2.176 1.111zM51.064 87.063c-.523-1.235-1.096-2.238-1.711-3.009-.928-1.172-1.883-1.791-2.871-1.852-1.051-.062-2.117.386-3.195 1.343-.711.617-1.5 1.496-2.363 2.638-.398.557-.908 1.529-1.525 2.917 0 .092-.031.169-.094.231.803-.031 1.637-.046 2.5-.046 2.625-.03 5.338-.047 8.146-.047h2.131c-.369-.832-.711-1.557-1.018-2.175z"/>
<style>path { fill: #000; } @media (prefers-color-scheme: dark) { path { fill: #FFF; } }</style></svg>