<svg viewBox="0 0 32 32" fill="currentColor" xmlns="http://www.w3.org/2000/svg">
  <path
    d="M23.0613 14.9388C23.2011 15.0781 23.312 15.2437 23.3878 15.426C23.4635 15.6083 23.5024 15.8038 23.5024 16.0012C23.5024 16.1987 23.4635 16.3941 23.3878 16.5765C23.312 16.7588 23.2011 16.9244 23.0613 17.0637L14.0612 26.0637C13.7795 26.3455 13.3973 26.5039 12.9987 26.5039C12.6002 26.5039 12.218 26.3455 11.9362 26.0637C11.6545 25.782 11.4961 25.3998 11.4961 25.0012C11.4961 24.6027 11.6545 24.2205 11.9362 23.9387L18.375 17.5H4C3.60218 17.5 3.22064 17.342 2.93934 17.0607C2.65804 16.7794 2.5 16.3978 2.5 16C2.5 15.6022 2.65804 15.2206 2.93934 14.9393C3.22064 14.658 3.60218 14.5 4 14.5H18.375L11.9388 8.06125C11.657 7.77946 11.4986 7.39726 11.4986 6.99875C11.4986 6.60024 11.657 6.21804 11.9388 5.93625C12.2205 5.65446 12.6027 5.49615 13.0013 5.49615C13.3998 5.49615 13.782 5.65446 14.0638 5.93625L23.0613 14.9388ZM27 3.5C26.6022 3.5 26.2206 3.65804 25.9393 3.93934C25.658 4.22064 25.5 4.60218 25.5 5V27C25.5 27.3978 25.658 27.7794 25.9393 28.0607C26.2206 28.342 26.6022 28.5 27 28.5C27.3978 28.5 27.7794 28.342 28.0607 28.0607C28.342 27.7794 28.5 27.3978 28.5 27V5C28.5 4.60218 28.342 4.22064 28.0607 3.93934C27.7794 3.65804 27.3978 3.5 27 3.5Z"
  />
</svg>