<svg viewBox="0 0 32 32" fill="currentColor" xmlns="http://www.w3.org/2000/svg">
  <path
    d="M16 2.5C13.33 2.5 10.7199 3.29176 8.49981 4.77516C6.27974 6.25856 4.54942 8.36697 3.52763 10.8338C2.50585 13.3006 2.2385 16.015 2.7594 18.6337C3.28031 21.2525 4.56606 23.6579 6.45406 25.5459C8.34207 27.434 10.7475 28.7197 13.3663 29.2406C15.985 29.7615 18.6994 29.4942 21.1662 28.4724C23.633 27.4506 25.7414 25.7203 27.2248 23.5002C28.7082 21.2801 29.5 18.67 29.5 16C29.496 12.4208 28.0724 8.98932 25.5416 6.45844C23.0107 3.92756 19.5792 2.50397 16 2.5ZM16 26.5C13.9233 26.5 11.8932 25.8842 10.1665 24.7304C8.4398 23.5767 7.09399 21.9368 6.29927 20.0182C5.50455 18.0996 5.29662 15.9884 5.70176 13.9516C6.10691 11.9148 7.10693 10.0438 8.57538 8.57538C10.0438 7.10693 11.9148 6.1069 13.9516 5.70175C15.9884 5.29661 18.0996 5.50454 20.0182 6.29926C21.9368 7.09399 23.5767 8.4398 24.7304 10.1665C25.8842 11.8932 26.5 13.9233 26.5 16C26.497 18.7839 25.3898 21.4528 23.4213 23.4213C21.4529 25.3898 18.7839 26.497 16 26.5ZM21.1988 19.9013C20.3799 20.9922 19.2387 21.7979 17.9366 22.2042C16.6345 22.6106 15.2375 22.597 13.9436 22.1654C12.6496 21.7339 11.5242 20.9062 10.7267 19.7995C9.92928 18.6929 9.50016 17.3634 9.50016 15.9994C9.50016 14.6353 9.92928 13.3059 10.7267 12.1992C11.5242 11.0926 12.6496 10.2649 13.9436 9.8333C15.2375 9.40172 16.6345 9.38815 17.9366 9.79451C19.2387 10.2009 20.3799 11.0066 21.1988 12.0975C21.3214 12.2546 21.4115 12.4345 21.4638 12.6268C21.5161 12.8191 21.5296 13.0199 21.5035 13.2175C21.4773 13.415 21.412 13.6054 21.3115 13.7774C21.2109 13.9495 21.0771 14.0998 20.9178 14.2195C20.7585 14.3393 20.577 14.4261 20.3838 14.4749C20.1906 14.5237 19.9896 14.5335 19.7925 14.5038C19.5955 14.474 19.4063 14.4053 19.2361 14.3017C19.0659 14.198 18.9181 14.0614 18.8013 13.9C18.3605 13.3123 17.746 12.8782 17.0448 12.6592C16.3437 12.4402 15.5914 12.4473 14.8945 12.6796C14.1976 12.9119 13.5914 13.3576 13.1619 13.9535C12.7324 14.5494 12.5013 15.2654 12.5013 16C12.5013 16.7346 12.7324 17.4506 13.1619 18.0465C13.5914 18.6424 14.1976 19.0881 14.8945 19.3204C15.5914 19.5527 16.3437 19.5598 17.0448 19.3408C17.746 19.1218 18.3605 18.6877 18.8013 18.1C18.9171 17.9362 19.0646 17.7973 19.2351 17.6915C19.4055 17.5857 19.5955 17.5152 19.7937 17.4841C19.9919 17.4531 20.1943 17.4621 20.389 17.5106C20.5837 17.5592 20.7666 17.6463 20.927 17.7668C21.0874 17.8873 21.222 18.0387 21.3228 18.2122C21.4236 18.3856 21.4887 18.5776 21.514 18.7766C21.5393 18.9756 21.5245 19.1777 21.4703 19.3709C21.4162 19.564 21.3238 19.7444 21.1988 19.9013Z"
  />
</svg>