<svg viewBox="0 0 32 32" fill="currentColor" xmlns="http://www.w3.org/2000/svg">
  <path
    d="M16.86 0.771261C16.6079 0.594859 16.3077 0.500244 16 0.500244C15.6923 0.500244 15.3921 0.594859 15.14 0.771261C13.2072 2.19572 11.4388 3.83078 9.8675 5.64626C6.35625 9.67876 4.5 13.9525 4.5 18C4.5 21.05 5.7116 23.9751 7.86827 26.1317C10.0249 28.2884 12.95 29.5 16 29.5C19.05 29.5 21.9751 28.2884 24.1317 26.1317C26.2884 23.9751 27.5 21.05 27.5 18C27.5 8.33001 17.295 1.07501 16.86 0.771261ZM16 26.5C13.7464 26.4977 11.5857 25.6014 9.99215 24.0079C8.39859 22.4143 7.50232 20.2536 7.5 18C7.5 13.8363 10 10.0788 12.0875 7.66126C13.2793 6.29224 14.5885 5.02994 16 3.88876C17.4115 5.02994 18.7207 6.29224 19.9125 7.66126C22 10.0788 24.5 13.8363 24.5 18C24.4977 20.2536 23.6014 22.4143 22.0078 24.0079C20.4143 25.6014 18.2536 26.4977 16 26.5ZM22.2025 19.95C21.8885 20.9482 21.3382 21.8558 20.5982 22.5957C19.8583 23.3357 18.9507 23.886 17.9525 24.2C17.8068 24.2453 17.6551 24.2685 17.5025 24.2688C17.1439 24.269 16.7971 24.1408 16.5249 23.9074C16.2528 23.674 16.0732 23.3508 16.0188 22.9964C15.9644 22.642 16.0387 22.2798 16.2284 21.9755C16.418 21.6711 16.7104 21.4448 17.0525 21.3375C17.5904 21.1685 18.0796 20.872 18.4783 20.4733C18.877 20.0746 19.1735 19.5855 19.3425 19.0475C19.4016 18.8596 19.4971 18.6851 19.6237 18.534C19.7502 18.383 19.9052 18.2584 20.0799 18.1673C20.4327 17.9832 20.8442 17.9469 21.2237 18.0663C21.4117 18.1254 21.5862 18.2209 21.7372 18.3474C21.8882 18.4739 22.0129 18.629 22.104 18.8037C22.1951 18.9784 22.2509 19.1693 22.2683 19.3655C22.2856 19.5618 22.2641 19.7596 22.205 19.9475L22.2025 19.95Z"
  />
</svg>