<svg viewBox="0 0 32 32" fill="currentColor" xmlns="http://www.w3.org/2000/svg">
  <path
    d="M30 25.5H28.5V18C28.8204 18.1126 29.1695 18.1131 29.4902 18.0015C29.8109 17.8899 30.0843 17.6728 30.2656 17.3857C30.4469 17.0985 30.5254 16.7584 30.4883 16.4209C30.4512 16.0833 30.3006 15.7684 30.0613 15.5275L17.7675 3.23123C17.2987 2.76256 16.6629 2.49927 16 2.49927C15.3371 2.49927 14.7013 2.76256 14.2325 3.23123L1.93875 15.525C1.69794 15.7656 1.54611 16.0809 1.50822 16.4192C1.47032 16.7574 1.54861 17.0986 1.73022 17.3865C1.91183 17.6744 2.18596 17.8919 2.50757 18.0034C2.82919 18.1149 3.17916 18.1137 3.5 18V25.5H2C1.60218 25.5 1.22064 25.658 0.93934 25.9393C0.658035 26.2206 0.5 26.6022 0.5 27C0.5 27.3978 0.658035 27.7793 0.93934 28.0606C1.22064 28.3419 1.60218 28.5 2 28.5H30C30.3978 28.5 30.7794 28.3419 31.0607 28.0606C31.342 27.7793 31.5 27.3978 31.5 27C31.5 26.6022 31.342 26.2206 31.0607 25.9393C30.7794 25.658 30.3978 25.5 30 25.5ZM6.5 15.2062L16 5.70623L25.5 15.2062V25.5H20.5V19C20.5 18.6022 20.342 18.2206 20.0607 17.9393C19.7794 17.658 19.3978 17.5 19 17.5H13C12.6022 17.5 12.2206 17.658 11.9393 17.9393C11.658 18.2206 11.5 18.6022 11.5 19V25.5H6.5V15.2062ZM17.5 25.5H14.5V20.5H17.5V25.5Z" />
</svg>