<svg viewBox="0 0 32 32" fill="currentColor" xmlns="http://www.w3.org/2000/svg"
  style="transform: rotate(180deg);">
  <path
    d="M21.75 5.96871C20.206 4.18551 18.4682 2.57978 16.5688 1.18121C16.4006 1.06343 16.2003 1.00024 15.995 1.00024C15.7897 1.00024 15.5894 1.06343 15.4213 1.18121C13.5253 2.58036 11.7909 4.18607 10.25 5.96871C6.81375 9.91496 5 14.075 5 18C5 20.9173 6.15893 23.7152 8.22183 25.7781C10.2847 27.841 13.0826 29 16 29C18.9174 29 21.7153 27.841 23.7782 25.7781C25.8411 23.7152 27 20.9173 27 18C27 14.075 25.1863 9.91496 21.75 5.96871Z" />
</svg>