<svg viewBox="0 0 32 32" fill="currentColor" xmlns="http://www.w3.org/2000/svg">
  <path
    d="M29 23.5001H25.5V21.5001H28C28.2279 21.5 28.4529 21.4481 28.6577 21.3481C28.8625 21.2481 29.0419 21.1028 29.1821 20.9231C29.3224 20.7435 29.4199 20.5342 29.4671 20.3112C29.5144 20.0883 29.5103 19.8574 29.455 19.6363L25.455 3.63632C25.3737 3.31198 25.1864 3.0241 24.9228 2.8184C24.6592 2.6127 24.3344 2.50098 24 2.50098C23.6656 2.50098 23.3408 2.6127 23.0772 2.8184C22.8136 3.0241 22.6263 3.31198 22.545 3.63632L18.545 19.6363C18.4897 19.8574 18.4856 20.0883 18.5329 20.3112C18.5801 20.5342 18.6776 20.7435 18.8179 20.9231C18.9581 21.1028 19.1375 21.2481 19.3423 21.3481C19.5471 21.4481 19.7721 21.5 20 21.5001H22.5V23.5001H14.5V22.0001C14.8978 22.0001 15.2794 21.842 15.5607 21.5607C15.842 21.2794 16 20.8979 16 20.5001C16 20.1022 15.842 19.7207 15.5607 19.4394C15.2794 19.1581 14.8978 19.0001 14.5 19.0001V17.5001C14.8978 17.5001 15.2794 17.342 15.5607 17.0607C15.842 16.7794 16 16.3979 16 16.0001C16 15.6022 15.842 15.2207 15.5607 14.9394C15.2794 14.6581 14.8978 14.5001 14.5 14.5001H4C3.60218 14.5001 3.22064 14.6581 2.93934 14.9394C2.65804 15.2207 2.5 15.6022 2.5 16.0001C2.5 16.3979 2.65804 16.7794 2.93934 17.0607C3.22064 17.342 3.60218 17.5001 4 17.5001V19.0001C3.60218 19.0001 3.22064 19.1581 2.93934 19.4394C2.65804 19.7207 2.5 20.1022 2.5 20.5001C2.5 20.8979 2.65804 21.2794 2.93934 21.5607C3.22064 21.842 3.60218 22.0001 4 22.0001V23.5001H3C2.60218 23.5001 2.22064 23.6581 1.93934 23.9394C1.65804 24.2207 1.5 24.6022 1.5 25.0001C1.5 25.3979 1.65804 25.7794 1.93934 26.0607C2.22064 26.342 2.60218 26.5001 3 26.5001H29C29.3978 26.5001 29.7794 26.342 30.0607 26.0607C30.342 25.7794 30.5 25.3979 30.5 25.0001C30.5 24.6022 30.342 24.2207 30.0607 23.9394C29.7794 23.6581 29.3978 23.5001 29 23.5001ZM24 10.1851L26.0788 18.5001H21.9212L24 10.1851ZM7 17.5001H11.5V19.0001H7V17.5001ZM7 22.0001H11.5V23.5001H7V22.0001ZM14.5 12.5001C15.2911 12.5001 16.0645 12.2655 16.7223 11.8259C17.3801 11.3864 17.8928 10.7617 18.1955 10.0308C18.4983 9.2999 18.5775 8.49563 18.4231 7.71971C18.2688 6.94378 17.8878 6.23105 17.3284 5.67164C16.769 5.11223 16.0563 4.73127 15.2804 4.57693C14.5044 4.42259 13.7002 4.5018 12.9693 4.80455C12.2384 5.1073 11.6136 5.61999 11.1741 6.27779C10.7346 6.93559 10.5 7.70894 10.5 8.50007C10.5 9.56094 10.9214 10.5784 11.6716 11.3285C12.4217 12.0786 13.4391 12.5001 14.5 12.5001ZM14.5 7.50007C14.6978 7.50007 14.8911 7.55872 15.0556 7.6686C15.22 7.77848 15.3482 7.93466 15.4239 8.11739C15.4996 8.30011 15.5194 8.50118 15.4808 8.69516C15.4422 8.88914 15.347 9.06732 15.2071 9.20718C15.0673 9.34703 14.8891 9.44227 14.6951 9.48085C14.5011 9.51944 14.3 9.49964 14.1173 9.42395C13.9346 9.34826 13.7784 9.22009 13.6685 9.05564C13.5586 8.89119 13.5 8.69785 13.5 8.50007C13.5 8.23485 13.6054 7.9805 13.7929 7.79296C13.9804 7.60543 14.2348 7.50007 14.5 7.50007Z"
  />
</svg>