<svg viewBox="0 0 32 32" fill="currentColor" xmlns="http://www.w3.org/2000/svg">
  <path
    d="M29.3423 7.28869C28.5987 6.39506 27.5663 5.78932 26.4235 5.57619C26.2872 4.87322 26.0015 4.20774 25.5857 3.62476C25.1699 3.04179 24.6338 2.55492 24.0135 2.1971C23.3933 1.83928 22.7034 1.61886 21.9906 1.55075C21.2778 1.48264 20.5586 1.56842 19.8819 1.80231C19.2051 2.03619 18.5864 2.41271 18.0677 2.9064C17.5491 3.40008 17.1425 3.99941 16.8755 4.66384C16.6085 5.32826 16.4874 6.04228 16.5203 6.75759C16.5531 7.47289 16.7393 8.17279 17.066 8.80994L8.81604 17.0662C8.1789 16.7394 7.479 16.5533 6.76369 16.5204C6.04839 16.4875 5.33437 16.6087 4.66994 16.8757C4.00551 17.1427 3.40618 17.5492 2.9125 18.0679C2.41881 18.5866 2.04229 19.2052 1.80841 19.882C1.57453 20.5588 1.48874 21.2779 1.55685 21.9907C1.62496 22.7035 1.84539 23.3934 2.2032 24.0137C2.56102 24.6339 3.04789 25.1701 3.63087 25.5859C4.21384 26.0016 4.87933 26.2874 5.58229 26.4237C5.71835 27.1268 6.00387 27.7925 6.41953 28.3757C6.8352 28.959 7.3713 29.4461 7.99156 29.8041C8.61182 30.1622 9.30175 30.3828 10.0147 30.451C10.7276 30.5193 11.4469 30.4336 12.1238 30.1998C12.8007 29.9659 13.4195 29.5894 13.9383 29.0956C14.4571 28.6019 14.8637 28.0025 15.1307 27.3379C15.3978 26.6734 15.5189 25.9592 15.4859 25.2438C15.453 24.5284 15.2667 23.8284 14.9398 23.1912L23.196 14.9337C24.222 15.4731 25.4036 15.6394 26.5385 15.4039C27.6735 15.1685 28.6915 14.546 29.4182 13.6429C30.1449 12.7399 30.5354 11.6124 30.5226 10.4533C30.5099 9.29424 30.0949 8.17558 29.3485 7.28869H29.3423ZM27.0123 11.8137C26.6988 12.1712 26.2681 12.4053 25.7976 12.4741C25.3271 12.5428 24.8475 12.4416 24.4448 12.1887C23.965 11.885 23.3961 11.7538 22.8318 11.8165C22.2674 11.8792 21.7412 12.1321 21.3398 12.5337L12.5398 21.3337C12.1384 21.7353 11.8857 22.2615 11.8232 22.8259C11.7607 23.3902 11.8922 23.959 12.196 24.4387C12.366 24.7126 12.4672 25.0236 12.491 25.345C12.5149 25.6665 12.4607 25.989 12.333 26.285C12.2054 26.581 12.0081 26.8417 11.7579 27.0451C11.5077 27.2484 11.2121 27.3882 10.8963 27.4526C10.5804 27.5171 10.2537 27.5042 9.94389 27.4151C9.63408 27.3261 9.3504 27.1634 9.117 26.9411C8.8836 26.7187 8.7074 26.4433 8.60342 26.1381C8.49943 25.833 8.47074 25.5073 8.51979 25.1887C8.55238 24.9751 8.53844 24.7569 8.47891 24.5492C8.41939 24.3415 8.31568 24.1491 8.1749 23.9852C8.03412 23.8212 7.85959 23.6897 7.66324 23.5994C7.46689 23.5092 7.25337 23.4625 7.03729 23.4624C6.95986 23.4621 6.88253 23.4679 6.80604 23.4799C6.48733 23.5293 6.16142 23.5008 5.85609 23.3969C5.55076 23.2931 5.27508 23.1169 5.05254 22.8835C4.83001 22.6501 4.66722 22.3663 4.57806 22.0564C4.4889 21.7464 4.47602 21.4195 4.54051 21.1036C4.605 20.7876 4.74494 20.4918 4.94842 20.2416C5.15189 19.9914 5.41286 19.7941 5.70906 19.6666C6.00527 19.539 6.32793 19.485 6.64953 19.5091C6.97114 19.5332 7.28215 19.6347 7.55604 19.8049C8.03572 20.1083 8.60434 20.2394 9.16841 20.1767C9.73248 20.114 10.2584 19.8612 10.6598 19.4599L19.4598 10.6599C19.8614 10.2585 20.1143 9.73231 20.177 9.16796C20.2397 8.60362 20.1084 8.03474 19.8048 7.55494C19.6345 7.28104 19.533 6.97004 19.5089 6.64843C19.4848 6.32683 19.5389 6.00417 19.6664 5.70796C19.794 5.41175 19.9913 5.15079 20.2415 4.94731C20.4917 4.74384 20.7874 4.60389 21.1034 4.5394C21.4194 4.47492 21.7463 4.4878 22.0562 4.57696C22.3662 4.66612 22.6499 4.8289 22.8834 5.05144C23.1168 5.27397 23.2929 5.54966 23.3968 5.85499C23.5006 6.16031 23.5291 6.48623 23.4798 6.80494C23.4433 7.03832 23.4624 7.27703 23.5356 7.50161C23.6089 7.7262 23.7341 7.93032 23.9011 8.09736C24.0681 8.26439 24.2723 8.38962 24.4969 8.46283C24.7214 8.53605 24.9602 8.55518 25.1935 8.51869C25.6 8.45357 26.0167 8.51546 26.3867 8.69592C26.7567 8.87638 27.062 9.16662 27.2609 9.52702C27.4598 9.88741 27.5427 10.3004 27.4982 10.7097C27.4537 11.1189 27.284 11.5045 27.0123 11.8137Z"
  />
</svg>