<svg viewBox="0 0 32 32" fill="currentColor" xmlns="http://www.w3.org/2000/svg">
  <path
    d="M30.0324 23.2624L19.1012 4.27864C18.7846 3.73716 18.3317 3.28801 17.7876 2.97588C17.2435 2.66375 16.6272 2.49951 15.9999 2.49951C15.3727 2.49951 14.7563 2.66375 14.2123 2.97588C13.6682 3.28801 13.2153 3.73716 12.8987 4.27864L1.96743 23.2624C1.66021 23.7879 1.49829 24.3856 1.49829 24.9943C1.49829 25.603 1.66021 26.2007 1.96743 26.7261C2.28054 27.2703 2.73279 27.7214 3.27778 28.0331C3.82277 28.3448 4.44088 28.5059 5.06868 28.4999H26.9312C27.5586 28.5055 28.1762 28.3442 28.7207 28.0325C29.2652 27.7208 29.717 27.27 30.0299 26.7261C30.3375 26.2009 30.4999 25.6033 30.5003 24.9946C30.5008 24.3859 30.3393 23.7881 30.0324 23.2624ZM27.4324 25.2249C27.3816 25.3115 27.3083 25.3828 27.2203 25.4312C27.1323 25.4796 27.0328 25.5033 26.9324 25.4999H5.06868C4.9683 25.5033 4.86884 25.4796 4.78083 25.4312C4.69282 25.3828 4.61952 25.3115 4.56868 25.2249C4.52556 25.1548 4.50273 25.0741 4.50273 24.9918C4.50273 24.9095 4.52556 24.8288 4.56868 24.7586L15.4999 5.77489C15.5541 5.69158 15.6282 5.6231 15.7155 5.5757C15.8028 5.5283 15.9006 5.50347 15.9999 5.50347C16.0993 5.50347 16.1971 5.5283 16.2844 5.5757C16.3717 5.6231 16.4458 5.69158 16.4999 5.77489L27.4299 24.7586C27.4734 24.8285 27.4967 24.9091 27.4971 24.9914C27.4976 25.0737 27.4752 25.1545 27.4324 25.2249ZM14.4999 16.9999V12.9999C14.4999 12.6021 14.658 12.2205 14.9393 11.9392C15.2206 11.6579 15.6021 11.4999 15.9999 11.4999C16.3978 11.4999 16.7793 11.6579 17.0606 11.9392C17.3419 12.2205 17.4999 12.6021 17.4999 12.9999V16.9999C17.4999 17.3977 17.3419 17.7792 17.0606 18.0606C16.7793 18.3419 16.3978 18.4999 15.9999 18.4999C15.6021 18.4999 15.2206 18.3419 14.9393 18.0606C14.658 17.7792 14.4999 17.3977 14.4999 16.9999ZM17.9999 21.9999C17.9999 22.3955 17.8826 22.7821 17.6629 23.111C17.4431 23.4399 17.1308 23.6963 16.7653 23.8477C16.3998 23.999 15.9977 24.0386 15.6098 23.9615C15.2218 23.8843 14.8654 23.6938 14.5857 23.4141C14.306 23.1344 14.1155 22.778 14.0384 22.3901C13.9612 22.0021 14.0008 21.6 14.1522 21.2345C14.3035 20.8691 14.5599 20.5567 14.8888 20.337C15.2177 20.1172 15.6044 19.9999 15.9999 19.9999C16.5304 19.9999 17.0391 20.2106 17.4141 20.5857C17.7892 20.9608 17.9999 21.4695 17.9999 21.9999Z"
  />
</svg>