<svg viewBox="0 0 32 32" fill="#DE9400" xmlns="http://www.w3.org/2000/svg">
  <path
    d="M27 5.5H5.00002C4.33698 5.5 3.7011 5.76339 3.23225 6.23223C2.76341 6.70107 2.50002 7.33696 2.50002 8V28C2.49802 28.4761 2.63325 28.9427 2.88952 29.3439C3.14578 29.7452 3.51223 30.0641 3.94502 30.2625C4.27724 30.418 4.63944 30.4991 5.00627 30.5C5.5933 30.4985 6.16091 30.2895 6.60877 29.91L6.62377 29.8962L10.5588 26.5H27C27.6631 26.5 28.2989 26.2366 28.7678 25.7678C29.2366 25.2989 29.5 24.663 29.5 24V8C29.5 7.33696 29.2366 6.70107 28.7678 6.23223C28.2989 5.76339 27.6631 5.5 27 5.5ZM26.5 23.5H10C9.64001 23.4994 9.29192 23.629 9.02002 23.865L5.50002 26.9037V8.5H26.5V23.5ZM10.5 13.5C10.5 13.1022 10.6581 12.7206 10.9394 12.4393C11.2207 12.158 11.6022 12 12 12H20C20.3978 12 20.7794 12.158 21.0607 12.4393C21.342 12.7206 21.5 13.1022 21.5 13.5C21.5 13.8978 21.342 14.2794 21.0607 14.5607C20.7794 14.842 20.3978 15 20 15H12C11.6022 15 11.2207 14.842 10.9394 14.5607C10.6581 14.2794 10.5 13.8978 10.5 13.5ZM10.5 18.5C10.5 18.1022 10.6581 17.7206 10.9394 17.4393C11.2207 17.158 11.6022 17 12 17H20C20.3978 17 20.7794 17.158 21.0607 17.4393C21.342 17.7206 21.5 18.1022 21.5 18.5C21.5 18.8978 21.342 19.2794 21.0607 19.5607C20.7794 19.842 20.3978 20 20 20H12C11.6022 20 11.2207 19.842 10.9394 19.5607C10.6581 19.2794 10.5 18.8978 10.5 18.5Z" />
</svg>