<svg viewBox="0 0 32 32" fill="#DE9400" xmlns="http://www.w3.org/2000/svg">
  <path
    d="M13.5002 16.9999C13.5002 17.3954 13.3829 17.7821 13.1631 18.111C12.9433 18.4399 12.631 18.6963 12.2655 18.8476C11.9001 18.999 11.4979 19.0386 11.11 18.9615C10.722 18.8843 10.3656 18.6938 10.0859 18.4141C9.80624 18.1344 9.61575 17.778 9.53858 17.3901C9.46141 17.0021 9.50102 16.6 9.65239 16.2345C9.80377 15.8691 10.0601 15.5567 10.389 15.3369C10.7179 15.1172 11.1046 14.9999 11.5002 14.9999C12.0306 14.9999 12.5393 15.2106 12.9144 15.5857C13.2894 15.9607 13.5002 16.4694 13.5002 16.9999ZM20.5002 14.9999C20.1046 14.9999 19.7179 15.1172 19.389 15.3369C19.0601 15.5567 18.8038 15.8691 18.6524 16.2345C18.501 16.6 18.4614 17.0021 18.5386 17.3901C18.6158 17.778 18.8062 18.1344 19.0859 18.4141C19.3656 18.6938 19.722 18.8843 20.11 18.9615C20.4979 19.0386 20.9001 18.999 21.2655 18.8476C21.631 18.6963 21.9433 18.4399 22.1631 18.111C22.3829 17.7821 22.5002 17.3954 22.5002 16.9999C22.5002 16.4694 22.2894 15.9607 21.9144 15.5857C21.5393 15.2106 21.0306 14.9999 20.5002 14.9999ZM29.0302 18.2724C28.7002 18.4233 28.3418 18.5021 27.9789 18.5036C27.8181 18.5031 27.6577 18.4868 27.5002 18.4549V22.9999C27.4985 24.4581 26.9185 25.856 25.8874 26.8871C24.8563 27.9182 23.4583 28.4982 22.0002 28.4999H10.0002C8.54197 28.4982 7.14398 27.9182 6.11289 26.8871C5.0818 25.856 4.50181 24.4581 4.50015 22.9999V18.4536C4.34181 18.4862 4.18056 18.5026 4.0189 18.5024C3.65692 18.5014 3.29934 18.4229 2.97015 18.2724C2.45636 18.0466 2.03505 17.6522 1.77592 17.1544C1.51679 16.6566 1.43538 16.0852 1.54515 15.5349L3.59765 4.53488C3.66086 4.20014 3.79182 3.88186 3.98248 3.59956C4.17314 3.31726 4.41948 3.0769 4.70638 2.89324C4.99328 2.70958 5.3147 2.58649 5.65089 2.53153C5.98708 2.47657 6.33095 2.4909 6.6614 2.57363L6.72015 2.58988L13.2202 4.49863H18.7877L25.2877 2.58988L25.3464 2.57363C25.6771 2.49093 26.0213 2.47674 26.3577 2.53193C26.6941 2.58713 27.0156 2.71054 27.3026 2.89458C27.5895 3.07862 27.8358 3.31941 28.0263 3.60214C28.2167 3.88486 28.3474 4.20356 28.4102 4.53863L30.4627 15.5386C30.571 16.0893 30.488 16.6605 30.2275 17.1576C29.967 17.6547 29.5446 18.048 29.0302 18.2724ZM21.5302 6.81863L27.1252 14.0524L25.5552 5.63613L21.5302 6.81863ZM4.87515 14.0524L10.4702 6.81863L6.44515 5.63613L4.87515 14.0524ZM24.5002 22.9999V15.5599L18.2639 7.49988H13.7364L7.50015 15.5599V22.9999C7.50015 23.6629 7.76355 24.2988 8.23239 24.7676C8.70123 25.2365 9.33711 25.4999 10.0002 25.4999H14.5002V24.6249L12.9402 23.0636C12.6584 22.7818 12.5001 22.3996 12.5001 22.0011C12.5001 21.6026 12.6584 21.2204 12.9402 20.9386C13.2219 20.6568 13.6041 20.4985 14.0027 20.4985C14.4012 20.4985 14.7834 20.6568 15.0652 20.9386L16.0002 21.8749L16.9389 20.9349C17.2207 20.6531 17.6029 20.4948 18.0014 20.4948C18.3999 20.4948 18.7821 20.6531 19.0639 20.9349C19.3457 21.2167 19.504 21.5989 19.504 21.9974C19.504 22.3959 19.3457 22.7781 19.0639 23.0599L17.5002 24.6249V25.4999H22.0002C22.6632 25.4999 23.2991 25.2365 23.7679 24.7676C24.2368 24.2988 24.5002 23.6629 24.5002 22.9999Z"
  />
</svg>