<svg viewBox="0 0 32 32" fill="#DE9400" xmlns="http://www.w3.org/2000/svg">
  <path
    d="M21.5 13C21.5 13.3978 21.342 13.7794 21.0607 14.0607C20.7794 14.342 20.3978 14.5 20 14.5H17.5V17C17.5 17.3978 17.342 17.7794 17.0607 18.0607C16.7794 18.342 16.3978 18.5 16 18.5C15.6022 18.5 15.2206 18.342 14.9393 18.0607C14.658 17.7794 14.5 17.3978 14.5 17V14.5H12C11.6022 14.5 11.2206 14.342 10.9393 14.0607C10.658 13.7794 10.5 13.3978 10.5 13C10.5 12.6022 10.658 12.2206 10.9393 11.9393C11.2206 11.658 11.6022 11.5 12 11.5H14.5V9C14.5 8.60218 14.658 8.22064 14.9393 7.93934C15.2206 7.65804 15.6022 7.5 16 7.5C16.3978 7.5 16.7794 7.65804 17.0607 7.93934C17.342 8.22064 17.5 8.60218 17.5 9V11.5H20C20.3978 11.5 20.7794 11.658 21.0607 11.9393C21.342 12.2206 21.5 12.6022 21.5 13ZM27.5 13C27.5 17.0475 25.6437 21.3212 22.1325 25.3587C20.5612 27.1742 18.7928 28.8093 16.86 30.2337C16.6079 30.4102 16.3077 30.5048 16 30.5048C15.6923 30.5048 15.3921 30.4102 15.14 30.2337C14.705 29.925 4.5 22.67 4.5 13C4.5 9.95001 5.7116 7.02494 7.86827 4.86827C10.0249 2.7116 12.95 1.5 16 1.5C19.05 1.5 21.9751 2.7116 24.1317 4.86827C26.2884 7.02494 27.5 9.95001 27.5 13ZM24.5 13C24.5 10.7457 23.6045 8.58365 22.0104 6.98959C20.4163 5.39553 18.2543 4.5 16 4.5C13.7457 4.5 11.5837 5.39553 9.98959 6.98959C8.39553 8.58365 7.5 10.7457 7.5 13C7.5 17.1637 10 20.9213 12.0875 23.3388C13.2793 24.7078 14.5885 25.9701 16 27.1112C17.4115 25.9701 18.7207 24.7078 19.9125 23.3388C22 20.9213 24.5 17.1637 24.5 13Z" />
</svg>