<svg viewBox="0 0 32 32" fill="#DE9400" xmlns="http://www.w3.org/2000/svg">
  <path
    d="M28.5938 12.5063C28.1537 12.0475 27.7 11.5738 27.5513 11.215C27.4188 10.895 27.4088 10.2362 27.4 9.65625C27.3813 8.40625 27.3575 6.85125 26.2525 5.7475C25.1475 4.64375 23.5938 4.6225 22.3438 4.6C21.7638 4.59125 21.105 4.58125 20.785 4.44875C20.4263 4.3 19.9525 3.84625 19.4937 3.40625C18.6087 2.5575 17.5063 1.5 16 1.5C14.4937 1.5 13.3913 2.5575 12.5063 3.40625C12.0475 3.84625 11.5738 4.3 11.215 4.44875C10.895 4.58125 10.2362 4.59125 9.65625 4.6C8.40625 4.625 6.85125 4.6425 5.75 5.75C4.64875 6.8575 4.625 8.40625 4.6 9.65625C4.59125 10.2362 4.58125 10.895 4.44875 11.215C4.3 11.5738 3.84625 12.0475 3.40625 12.5063C2.5575 13.3913 1.5 14.5 1.5 16C1.5 17.5 2.5575 18.6087 3.40625 19.5C3.84625 19.9587 4.3 20.4325 4.44875 20.7913C4.58125 21.1112 4.59125 21.77 4.6 22.35C4.61875 23.6 4.6425 25.155 5.7475 26.2588C6.8525 27.3625 8.40625 27.3838 9.65625 27.4062C10.2362 27.415 10.895 27.425 11.215 27.5575C11.5738 27.7063 12.0475 28.16 12.5063 28.6C13.3913 29.4425 14.5 30.5 16 30.5C17.5 30.5 18.6087 29.4425 19.4937 28.5938C19.9525 28.1537 20.4263 27.7 20.785 27.5513C21.105 27.4188 21.7638 27.4088 22.3438 27.4C23.5938 27.3813 25.1488 27.3575 26.2525 26.2525C27.3563 25.1475 27.3775 23.5938 27.4 22.3438C27.4088 21.7638 27.4188 21.105 27.5513 20.785C27.7 20.4263 28.1537 19.9525 28.5938 19.4937C29.4425 18.6087 30.5 17.5063 30.5 16C30.5 14.4937 29.4425 13.3913 28.5938 12.5063ZM26.4287 17.4175C25.8262 18.0425 25.1438 18.7575 24.78 19.6375C24.4275 20.4875 24.4138 21.4075 24.405 22.2987C24.395 22.9688 24.3813 23.8875 24.1362 24.1313C23.8912 24.375 22.9737 24.39 22.3037 24.4C21.4125 24.4137 20.4925 24.4275 19.6425 24.775C18.7675 25.1388 18.0513 25.8212 17.4225 26.4237C16.9725 26.855 16.3 27.5 16 27.5C15.7 27.5 15.0275 26.855 14.5825 26.4287C13.9575 25.8262 13.2425 25.1438 12.3625 24.78C11.5125 24.4275 10.5925 24.4138 9.70125 24.405C9.03125 24.395 8.1125 24.3813 7.86875 24.1362C7.625 23.8912 7.61 22.9737 7.6 22.3037C7.58625 21.4125 7.5725 20.4925 7.225 19.6425C6.86125 18.7675 6.17875 18.0513 5.57625 17.4225C5.145 16.9725 4.5 16.3 4.5 16C4.5 15.7 5.145 15.0275 5.57125 14.5825C6.17375 13.9575 6.85625 13.2425 7.22 12.3625C7.5725 11.5125 7.58625 10.5925 7.595 9.70125C7.61 9.03125 7.625 8.1125 7.875 7.875C8.125 7.6375 9.0375 7.61625 9.7075 7.60625C10.5988 7.5925 11.5187 7.57875 12.3687 7.23125C13.2437 6.8675 13.96 6.185 14.5887 5.5825C15.0275 5.145 15.7 4.5 16 4.5C16.3 4.5 16.9725 5.145 17.4175 5.57125C18.0425 6.17375 18.7575 6.85625 19.6375 7.22C20.4875 7.5725 21.4075 7.58625 22.2987 7.595C22.9688 7.605 23.8875 7.61875 24.1313 7.86375C24.375 8.10875 24.39 9.02625 24.4 9.69625C24.4137 10.5875 24.4275 11.5075 24.775 12.3575C25.1388 13.2325 25.8212 13.9488 26.4237 14.5775C26.85 15.0225 27.495 15.695 27.495 15.995C27.495 16.295 26.855 16.9725 26.4287 17.4175ZM22.0613 11.9388C22.2011 12.0781 22.312 12.2437 22.3878 12.426C22.4635 12.6083 22.5024 12.8038 22.5024 13.0013C22.5024 13.1987 22.4635 13.3942 22.3878 13.5765C22.312 13.7588 22.2011 13.9244 22.0613 14.0638L15.0612 21.0637C14.9219 21.2036 14.7563 21.3145 14.574 21.3903C14.3917 21.466 14.1962 21.5049 13.9987 21.5049C13.8013 21.5049 13.6058 21.466 13.4235 21.3903C13.2412 21.3145 13.0756 21.2036 12.9362 21.0637L9.93625 18.0637C9.79672 17.9242 9.68604 17.7586 9.61053 17.5763C9.53501 17.394 9.49615 17.1986 9.49615 17.0012C9.49615 16.8039 9.53501 16.6085 9.61053 16.4262C9.68604 16.2439 9.79672 16.0783 9.93625 15.9388C10.0758 15.7992 10.2414 15.6885 10.4237 15.613C10.606 15.5375 10.8014 15.4986 10.9987 15.4986C11.1961 15.4986 11.3915 15.5375 11.5738 15.613C11.7561 15.6885 11.9217 15.7992 12.0612 15.9388L14 17.875L19.9387 11.935C20.0783 11.7958 20.2439 11.6854 20.4262 11.6103C20.6084 11.5351 20.8037 11.4966 21.0008 11.4969C21.1979 11.4973 21.393 11.5365 21.575 11.6123C21.7569 11.6881 21.9222 11.799 22.0613 11.9388Z" />
</svg>