<svg viewBox="0 0 32 32" fill="#DE9400" xmlns="http://www.w3.org/2000/svg">
  <path
    d="M23.5 23C23.1044 23 22.7178 22.8827 22.3889 22.6629C22.06 22.4431 21.8036 22.1308 21.6522 21.7653C21.5009 21.3999 21.4613 20.9977 21.5384 20.6098C21.6156 20.2218 21.8061 19.8655 22.0858 19.5857C22.3655 19.306 22.7219 19.1156 23.1098 19.0384C23.4978 18.9612 23.8999 19.0008 24.2654 19.1522C24.6308 19.3036 24.9432 19.5599 25.1629 19.8888C25.3827 20.2177 25.5 20.6044 25.5 21C25.5 21.5304 25.2893 22.0391 24.9142 22.4142C24.5391 22.7892 24.0304 23 23.5 23ZM28 14.5H22.5C22.1022 14.5 21.7206 14.658 21.4393 14.9393C21.158 15.2206 21 15.6021 21 16C21 16.3978 21.158 16.7793 21.4393 17.0606C21.7206 17.3419 22.1022 17.5 22.5 17.5H27.5V24.5H4.5V17.5H9.5C9.89782 17.5 10.2794 17.3419 10.5607 17.0606C10.842 16.7793 11 16.3978 11 16C11 15.6021 10.842 15.2206 10.5607 14.9393C10.2794 14.658 9.89782 14.5 9.5 14.5H4C3.33696 14.5 2.70107 14.7634 2.23223 15.2322C1.76339 15.701 1.5 16.3369 1.5 17V25C1.5 25.663 1.76339 26.2989 2.23223 26.7677C2.70107 27.2366 3.33696 27.5 4 27.5H28C28.663 27.5 29.2989 27.2366 29.7678 26.7677C30.2366 26.2989 30.5 25.663 30.5 25V17C30.5 16.3369 30.2366 15.701 29.7678 15.2322C29.2989 14.7634 28.663 14.5 28 14.5ZM11.0612 10.0612L14.5 6.62496V16C14.5 16.3978 14.658 16.7793 14.9393 17.0606C15.2206 17.3419 15.6022 17.5 16 17.5C16.3978 17.5 16.7794 17.3419 17.0607 17.0606C17.342 16.7793 17.5 16.3978 17.5 16V6.62496L20.9387 10.065C21.0783 10.2045 21.2439 10.3152 21.4262 10.3907C21.6085 10.4662 21.8039 10.5051 22.0012 10.5051C22.1986 10.5051 22.394 10.4662 22.5763 10.3907C22.7586 10.3152 22.9242 10.2045 23.0637 10.065C23.2033 9.92543 23.314 9.75979 23.3895 9.57748C23.465 9.39518 23.5039 9.19979 23.5039 9.00246C23.5039 8.80514 23.465 8.60974 23.3895 8.42744C23.314 8.24514 23.2033 8.07949 23.0637 7.93996L17.0637 1.93996C16.9244 1.80012 16.7588 1.68917 16.5765 1.61346C16.3941 1.53775 16.1987 1.49878 16.0012 1.49878C15.8038 1.49878 15.6083 1.53775 15.426 1.61346C15.2437 1.68917 15.0781 1.80012 14.9388 1.93996L8.93875 7.93996C8.79922 8.07949 8.68854 8.24514 8.61303 8.42744C8.53751 8.60974 8.49865 8.80514 8.49865 9.00246C8.49865 9.40098 8.65696 9.78317 8.93875 10.065C9.22054 10.3468 9.60274 10.5051 10.0013 10.5051C10.3998 10.5051 10.782 10.3468 11.0638 10.065L11.0612 10.0612Z" />
</svg>